<?xml version="1.0" encoding="UTF-8"?>
<svg id="a" data-name="Layer 1" xmlns="http://www.w3.org/2000/svg" width="15.829cm" height="13.26cm" xmlns:xlink="http://www.w3.org/1999/xlink" viewBox="0 0 448.693 375.888">
  <defs>
    <linearGradient id="b" x1="171.028" y1="109.983" x2="289.861" y2="139.611" gradientUnits="userSpaceOnUse">
      <stop offset=".053" stop-color="#e5cb7f"/>
      <stop offset=".078" stop-color="#e7cb72"/>
      <stop offset=".167" stop-color="#f0cb4a"/>
      <stop offset=".255" stop-color="#f6cc2b"/>
      <stop offset=".34" stop-color="#fbcc14"/>
      <stop offset=".421" stop-color="#fecc07"/>
      <stop offset=".493" stop-color="#ffcd03"/>
      <stop offset=".565" stop-color="#fbca03"/>
      <stop offset=".618" stop-color="#f2c105"/>
      <stop offset=".666" stop-color="#e2b207"/>
      <stop offset=".71" stop-color="#cb9d0b"/>
      <stop offset=".752" stop-color="#ae820f"/>
      <stop offset=".787" stop-color="#8f6615"/>
    </linearGradient>
  </defs>
  <circle cx="230.94" cy="153.054" r="153.054" fill="#ffe6a9"/>
  <circle cx="230.94" cy="153.054" r="96.445" fill="#fdc374"/>
  <g>
    <g>
      <path d="M339.82,195.013s-13.068-29.783-28.14-36.673c-17.028-7.784-45.065-3.68-45.065-3.68l.678,10.59s15.657-4.521,20.774-4.071c26.082,2.295,25.83,6.164,37.511,45.648,0,0,2.882-17.124,14.242-11.813Z" fill="#e5b52b"/>
      <path d="M325.856,211.466l-1.285-4.343c-.606-2.049-1.181-4.002-1.728-5.864-10.033-34.134-10.853-36.922-34.868-39.036-4.869-.423-20.237,3.989-20.392,4.034l-1.256.363-.822-12.86.957-.14c1.157-.169,28.54-4.058,45.653,3.764,15.261,6.977,28.125,35.976,28.666,37.207l1.12,2.555-2.526-1.182c-2.456-1.148-4.556-1.229-6.42-.252-4.805,2.518-6.328,11.201-6.343,11.288l-.757,4.466ZM287.299,160.097c.311,0,.598.011.86.034,25.442,2.239,26.725,6.599,36.699,40.536.216.732.435,1.479.658,2.239,1.031-3.087,3-7.236,6.46-9.052,1.778-.936,3.734-1.154,5.838-.66-3.365-7.005-14.415-28.344-26.571-33.9-14.798-6.766-38.48-4.337-43.518-3.721l.532,8.312c3.639-1.008,14.115-3.788,19.041-3.788Z" fill="#231f20"/>
    </g>
    <rect x="318.943" y="190.118" width="27.545" height="12.485" rx="5.717" ry="5.717" transform="translate(-52.732 170.138) rotate(-26.656)" fill="#fff" stroke="#231f20" stroke-miterlimit="10" stroke-width="2.306"/>
    <g>
      <path d="M122.914,195.013s13.068-29.783,28.14-36.673c17.028-7.784,45.065-3.68,45.065-3.68l-.678,10.59s-15.657-4.521-20.774-4.071c-26.082,2.295-25.83,6.164-37.511,45.648,0,0-2.882-17.124-14.242-11.813Z" fill="#e5b52b"/>
      <path d="M136.879,211.467l-.757-4.467c-.015-.087-1.538-8.771-6.343-11.288-1.866-.977-3.965-.896-6.419.252l-2.527,1.182,1.121-2.555c.54-1.231,13.404-30.23,28.665-37.207,17.112-7.823,44.496-3.934,45.654-3.764l.958.14-.824,12.86-1.256-.363c-.155-.045-15.529-4.461-20.391-4.034-24.016,2.113-24.835,4.901-34.868,39.037-.547,1.861-1.121,3.814-1.728,5.863l-1.285,4.344ZM127.049,192.939c1.307,0,2.546.305,3.709.916,3.46,1.815,5.429,5.965,6.459,9.052.224-.761.443-1.507.658-2.239,9.975-33.937,11.256-38.297,36.7-40.536,4.438-.397,16.033,2.682,19.901,3.754l.532-8.312c-5.036-.616-28.719-3.044-43.518,3.721-12.162,5.56-23.208,26.896-26.572,33.9.728-.171,1.438-.256,2.129-.256Z" fill="#231f20"/>
    </g>
    <rect x="116.603" y="190.119" width="27.546" height="12.485" rx="5.717" ry="5.717" transform="translate(68.427 -31.054) rotate(18.345)" fill="#fff" stroke="#231f20" stroke-miterlimit="10" stroke-width="2.306"/>
    <path d="M276.624,228.392c-.396-2.338-1.087-4.67-1.754-6.925-.535-1.81-1.042-3.52-1.411-5.239-2.941-13.673-3.784-28.263-4.599-42.373-.168-2.909-.336-5.804-.52-8.674l-.68-10.609-.733-8.893c-.235-5.976-.055-12.075.119-17.973.111-3.756.225-7.638.232-11.455l.375-5.165c.152-2.09.239-4.215.324-6.27.082-1.995.167-4.059.31-6.073.384-5.378.898-10.875,1.393-16.191,1.194-12.782,2.428-25.999,2.002-38.87l-.027-.857c-.241-7.788-.783-16.388-4.178-19.876-5.274-5.416-18.975-5.635-28.041-5.78-1.596-.025-3.107-.049-4.364-.1-10.161-4.825-18.762-6.942-27.052-6.645-.111.004-11.603.742-13.175,1.893-1.326.971-1.677,3.871-1.889,9.232-.021.532-.04,1.019-.063,1.414-2.054.922-4.329,2.361-5.251,5.144-.928,2.801-.342,5.461.224,8.035l1.066,37.868c.985,15.806,1.958,28.175,2.987,41.271.653,8.304,1.328,16.891,2.042,26.807.394,5.476.665,11.057.928,16.454.416,8.555.846,17.401,1.775,26.064.079.807.941,6.424,2.136,14.199,1.929,12.555,5.157,33.568,5.113,35.055l-.005.111.018.109c.396,2.385.878,4.436,1.475,6.271l.353,1.088,1.33-.562c.415-.176.83-.352,1.25-.516l.899-.351,63.674-10.974.185,1.027,3.707-.634-.176-1.037ZM197.381,15.252c8.992-1.875,18.691-1.352,27.4,1.488.734.239,1.628.549,2.527.936l-30.547,4.32.621-6.743ZM206.98,228.19c-.914-6.006-5.54-36.347-6.562-42.864h.049s-.141-1.153-.141-1.153c-1.089-8.88-1.429-17.804-1.758-26.436-.209-5.477-.425-11.141-.829-16.807l-6.185-103.088c-.494-2.859-1.053-6.1-.538-8.027.292-1.092,1.231-2.31,2.284-2.961,2.339-1.444,8.927-2.162,13.285-2.637,1.49-.163,2.778-.303,3.793-.451l2.873-.421c12.795-1.881,24.881-3.658,37.969-1.942l1.146.147c6.125.776,13.065,1.656,14.358,7.858,2.746,13.171,1.613,28.585.143,41.927-2.504,22.723-3.143,44.815-3.718,71.337v.057s.004.058.004.058c.714,8.043,1.152,16.26,1.574,24.206.854,16.038,1.736,32.623,4.943,48.703.151.755.354,1.612.587,2.533l-63.278,9.959Z" fill="#231f20"/>
    <path d="M269.672,215.698c-3.207-16.08-4.089-32.665-4.943-48.703-.422-7.946-.86-16.162-1.574-24.206l-.005-.058v-.057c.576-26.522,1.215-48.614,3.719-71.337,1.47-13.342,2.603-28.756-.143-41.927-1.293-6.202-8.233-7.082-14.358-7.858l-1.146-.147c-13.088-1.716-25.174.061-37.969,1.942l-2.873.421c-1.015.148-2.303.288-3.793.451-4.359.475-10.946,1.192-13.285,2.637-1.053.651-1.992,1.868-2.284,2.961-.515,1.927.044,5.168.538,8.027l.87,28.117,5.314,74.971c.404,5.666.62,11.33.829,16.807.329,8.631.669,17.556,1.758,26.436l.141,1.152h-.049c1.021,6.517,5.648,36.858,6.562,42.864l63.278-9.959c-.233-.921-.436-1.778-.587-2.533Z" fill="url(#b)"/>
    <path d="M358.972,218.029l-13.082-18.393c-.84-1.139-1.674-2.27-2.558-3.378l-1.271-1.943c-1.199-1.17-2.805-1.825-4.481-1.822-2.212.005-5.492.296-6.329.52-3.164.847-3.611,6.849-3.611,6.849-.727,2.447-1.796,5.044-3.588,6.964-.705.755-1.613,1.433-2.693,1.556-.846.097-1.62-.196-2.284-.655-1.269-.005-2.493-.679-3.757-.935-11.045-9.288-22.73-18.952-22.73-18.952h-123.292s-11.685,9.664-22.73,18.952l-6.042,1.589c-1.08-.124-1.988-.801-2.693-1.556-1.793-1.92-3.211-4.439-3.588-6.964-.286-1.914-.045-5.823-3.611-6.849-4.446-1.279-9.176-.715-11.91,3.017-.078.107-.137.185-.171.228-.885,1.108-1.718,2.239-2.558,3.378l-13.082,18.393c-2.318,4.036-2.465,4.868-.415,9.07l4.723,10.378c2.112,2.871,3.748,6.336,7.242,7.918,6.321-.285,13.419.608,19.649.059,3.063-.27,8.035-2.519,10.644-2.447,1.507.041,4.039,1.202,5.547,1.503,21.771,4.335,44.336,6.197,66.922,6.515,4.559.064,9.135.082,13.719.046,4.584.036,9.16.018,13.719-.046,22.586-.318,45.152-2.18,66.922-6.515,1.509-.3,4.041-1.462,5.547-1.503,2.609-.072,7.581,2.177,10.644,2.447,6.23.549,13.328-.344,19.649-.059,3.495-1.581,5.13-5.047,7.242-7.918l4.723-10.378c2.05-4.202,1.902-5.033-.415-9.07ZM131.54,215.099c-6.734.313-9.675-3.161-9.169-8.809l.273-5.603c.048-.283.225-1.74-.329-1.712-2.348,5.385-.914,11.434-1.292,17.134-1.63,1.093-3.824,2.551-5.049,4.05-2.241,4.631-.562,10.137,3.928,12.883l7.205,4.407c.219,1.043-.778,3.17-6.38,4.082-5.95.968-8.156-4.183-8.156-4.183-1.81-3.138-3.666-6.478-5.493-9.607-1.04-1.783-2.604-2.409-2.244-5.074.094-.696,1.826-3.735,2.314-4.535,1.295-2.12,3.355-4.326,4.783-6.4.527-.766,2.535-4.715,3.016-4.915l5.392-8.409,1.721-3.396c3.075-.993,5.826-.868,8.907.004.563.304,2.033,5.965,2.251,6.983.077.361.294,1.271.451,2.199.357,2.113,1.238,4.113,2.607,5.805.036.067.073.136.109.203,1.155,3.797-1.299,4.728-4.844,4.893ZM354.802,227.741c-1.827,3.129-3.683,6.469-5.493,9.607,0,0-2.207,5.151-8.156,4.183-5.602-.912-6.599-3.039-6.38-4.082l7.204-4.407c4.49-2.746,6.168-8.252,3.928-12.883-1.225-1.499-3.419-2.957-5.049-4.05-.378-5.7,1.057-11.749-1.292-17.134-.554-.028-.377,1.429-.329,1.712l.273,5.603c.507,5.648-2.434,9.122-9.169,8.809-3.544-.165-5.999-1.096-4.844-4.893.036-.067.073-.136.109-.203,1.368-1.692,2.249-3.692,2.607-5.805.157-.928.373-1.838.451-2.199.218-1.018,1.688-6.679,2.251-6.983,3.08-.871,5.832-.997,8.906-.004l1.722,3.396,5.392,8.409c.481.2,2.489,4.149,3.016,4.915,1.427,2.074,3.488,4.281,4.783,6.4.488.8,2.22,3.839,2.314,4.535.36,2.665-1.204,3.292-2.244,5.074Z"/>
    <path d="M354.802,227.741c-1.827,3.129-3.683,6.469-5.493,9.607,0,0-2.207,5.151-8.156,4.183-5.602-.912-6.599-3.039-6.38-4.082l7.204-4.407c4.49-2.746,6.168-8.252,3.928-12.883-1.225-1.499-3.419-2.957-5.049-4.05-.378-5.7,1.057-11.749-1.291-17.134-.554-.028-.377,1.429-.329,1.712l.273,5.603c.507,5.648-2.434,9.122-9.169,8.809-3.544-.165-5.999-1.096-4.844-4.893.036-.067.073-.136.109-.203,1.368-1.692,2.249-3.692,2.607-5.805.157-.928.373-1.838.451-2.199.218-1.018,1.688-6.679,2.251-6.983,3.08-.871,5.832-.997,8.907-.004l1.722,3.396,5.392,8.409c.481.2,2.489,4.149,3.016,4.915,1.427,2.074,3.488,4.281,4.783,6.4.488.8,2.22,3.839,2.314,4.535.36,2.665-1.203,3.292-2.244,5.074Z" fill="#fff"/>
    <g>
      <path d="M263.025,9.852c.121.035.27.007.391-.063l-.409.054c.007.002.01.007.017.009Z"/>
      <path d="M266.881,22.078c-.08-.035-1.648-.809-1.687-.884-4.243-2.498-4.004-4.882-7.44-4.604-3.115.251-5.179,2.561-5.483,6.487-.342,4.424.274,9.614-.182,13.943-.53,5.029-6.242,5.087-6.555-.4-.258-4.522.411-9.605.178-14.146-.296-5.767-4.572-6.163-8.218-6.152-.446.001-4.353.433-4.799.434-11.005-6.328-30.866-5.027-34.334-4.728l-2.113.474c-.015.281-.033.561-.033.845-.932.711-1.547,1.213.354-.089.578-.153,1.156-.304,1.746-.382.001-.072.009-.145.011-.218,5.836-.668,24.066,3.13,33.511,5.237.276.198.554.392.838.577.352.229.701.464,1.045.704l7.576.097c.758.01,2.157,1.74,2.226,2.752l-.01-.013c.233.775.396,1.58.493,2.401.119,1.004.148,2.02.142,3.034-.006,1.031-.047,2.06-.066,3.091-.015.847-.005,1.693-.018,2.54-.012.824-.021,1.645.017,2.467.075,1.624.179,3.402.731,4.945.186.522.429,1.018.756,1.422.328.406.728.683,1.174.834,1.348.458,2.894.632,4.209-.09.621-.341,1.141-.882,1.541-1.563.396-.675.677-1.445.882-2.237.207-.799.341-1.626.421-2.459.091-.94.1-1.889.13-2.834.036-1.15.076-2.299.127-3.448.051-1.149.121-2.296.188-3.444.107-1.826.355-3.696,1.146-5.279.156-.311.331-.607.522-.886-.107-.011-.214-.02-.321-.031.163-.378.866-.941,1.175-1.005l11.073,5.765,1.406.48c-.459-1.465-.942-3.012-2.359-3.637Z"/>
    </g>
    <path d="M265.578,16.868c-.389-1.463-1.967-3.207-3.422-3.624l-8.553-3.646c-1.231.302-2.477.545-3.735.726-4.831.695-9.731-.183-14.578.381-4.144.483-10.233,2.038-14.375,2.536,3.574.765,8.949,1.885,11.78,3.513.446,0,4.353-.432,4.799-.434,3.646-.011,7.922.385,8.218,6.152.233,4.541-.435,9.624-.178,14.146.313,5.487,6.026,5.429,6.555.4.456-4.329-.16-9.519.182-13.943.304-3.926,2.368-6.236,5.483-6.487,3.841-.31,3.071,2.705,9.127,5.489.307-1.909-.474-2.089-1.303-5.211Z" fill="#6a481c"/>
    <path d="M227.308,17.676l-30.547,4.32.621-6.743c8.992-1.875,18.691-1.352,27.4,1.488.734.239,1.628.549,2.527.936Z" fill="#e5b52d"/>
    <path d="M131.54,215.099c-6.734.313-9.675-3.161-9.169-8.809l.273-5.603c.048-.283.225-1.74-.329-1.712-2.348,5.385-.914,11.434-1.291,17.134-1.63,1.093-3.824,2.551-5.049,4.05-2.241,4.632-.562,10.137,3.928,12.883l7.204,4.407c.219,1.043-.778,3.17-6.38,4.082-5.95.968-8.156-4.183-8.156-4.183-1.81-3.138-3.666-6.478-5.493-9.607-1.04-1.783-2.604-2.409-2.244-5.074.094-.696,1.826-3.735,2.314-4.535,1.294-2.12,3.355-4.326,4.783-6.4.527-.766,2.535-4.715,3.016-4.915l5.392-8.409,1.722-3.396c3.075-.993,5.826-.868,8.907.004.563.304,2.033,5.965,2.251,6.983.078.361.294,1.271.451,2.199.358,2.113,1.238,4.113,2.607,5.805.036.067.073.136.109.203,1.155,3.797-1.299,4.728-4.844,4.893Z" fill="#fff"/>
    <g id="c" data-name="35ses0.tif">
      <g>
        <path d="M241.03,48.218l1.992.224c4.101.46,11.721,7.088,13.429,10.853.119.262.399,1.364.466,1.395.22.102.155-.123.202-.233,1.845-4.326-.091-10.145-3.766-12.906-3.917-2.943-8.674-2.279-12.323.668ZM223.705,53.907c.245-.204-1.506-2.494-1.76-2.761-5.144-5.419-13.869-.163-14.351,6.406.441-.388.59-.908,1.026-1.354,1.799-1.843,4.771-2.598,7.27-2.808,2.588-.218,5.286-.014,7.816.518ZM220.618,62.754c-3.465-.082-6.962,1.457-9.243,4.021-7.332,8.241-8.34,28.802-2.6,38.122,2.49,4.043,7.095,6.696,11.641,4.04,5.232-3.058,9.125-14.128,10.028-19.867,1.225-7.78,1.507-26.049-9.826-26.316ZM238.014,91.611c2.212-5.103,6.328-9.227,11.204-11.826-1.345-3.576-4.878-1.196-6.772.488-4.614,4.101-8.402,11.411-9.997,17.327-.25.928-.7,2.391-.812,3.288-.021.168.027.318.051.479.181.159.89-.305,1.075-.424,1.041-.671,2.039-1.577,3.096-2.264,4.24-2.758,11.194-5.586,16.277-4.27.756.196,1.455.539,2.148.883,2.092-4.214-4.029-4.257-6.648-4.093-2.874.181-5.661.942-8.368,1.861,2.2-2.18,4.732-3.278,7.578-4.327.08-.029.335-.015.175-.147-3.287-.069-6.418,1.042-9.007,3.026Z" fill="#fff"/>
        <path d="M220.618,62.754c11.333.267,11.052,18.535,9.826,26.316-.904,5.738-4.796,16.809-10.028,19.867-4.546,2.657-9.151.003-11.641-4.04-5.74-9.319-4.732-29.881,2.6-38.122,2.281-2.564,5.778-4.103,9.243-4.021ZM226.843,93.955c1.309-4.858,2.04-9.948,1.883-14.983-.217-6.938-2.359-16.56-11.584-13.572-7.977,2.584-9.889,16.206-9.874,23.345.011,5.22,1.232,14.068,5.455,17.609,3.071,2.575,6.424,1.887,8.819-1.106-2.133.361-3.765-.567-4.924-2.297-1.855-2.771-1.774-6.734-.699-9.785.469.24.69.732,1.223.935,2.701,1.032,4.62-1.932,4.121-4.368-.048-.236-.617-1.421-.54-1.481,2.593-.311,4.449,1.322,5.426,3.562l.694,2.141Z"/>
        <path d="M238.014,91.611c2.589-1.983,5.72-3.095,9.007-3.026.16.132-.095.118-.175.147-2.846,1.049-5.378,2.147-7.578,4.327,2.707-.919,5.494-1.68,8.368-1.861,2.619-.165,8.74-.122,6.648,4.093-.693-.344-1.392-.687-2.148-.883-5.083-1.316-12.037,1.512-16.277,4.27-1.056.687-2.055,1.592-3.096,2.264-.185.119-.894.583-1.075.424-.024-.161-.072-.311-.051-.479.112-.897.561-2.359.812-3.288,1.595-5.916,5.382-13.226,9.997-17.327,1.895-1.684,5.427-4.064,6.772-.488-4.876,2.6-8.992,6.724-11.204,11.826Z"/>
        <path d="M239.223,49.475c-1.052-.118-1.385-1.517-.479-2.065,4.888-2.958,10.637-3.171,15.475.628,5.311,4.17,8.074,13.005,5.362,19.598-.069.167.024.509-.295.356-.097-.046-.494-1.72-.664-2.118-2.447-5.712-13.451-15.731-19.398-16.399h0Z" fill="#6a491d" stroke="#000" stroke-miterlimit="10" stroke-width="1.957"/>
        <path d="M229.269,54.133c.552.837-.151,1.931-1.141,1.768-3.665-.603-7.475-.785-11.157-.451-4.265.387-9.341,1.738-12.422,4.998-.746.79-1.004,1.707-1.759,2.395.866-11.585,15.787-20.911,24.528-11.388.229.25,1.177,1.504,1.951,2.679Z" fill="#6a491d" stroke="#000" stroke-miterlimit="10" stroke-width="1.957"/>
        <path d="M226.843,93.955l-.694-2.141c-.977-2.239-2.833-3.872-5.426-3.562-.078.06.491,1.245.54,1.481.499,2.436-1.42,5.4-4.121,4.368-.533-.204-.754-.695-1.223-.935-1.075,3.051-1.156,7.014.699,9.785,1.159,1.731,2.791,2.659,4.924,2.297-2.395,2.992-5.748,3.681-8.819,1.106-4.223-3.542-5.444-12.389-5.455-17.609-.015-7.14,1.897-20.761,9.874-23.345,9.225-2.988,11.368,6.633,11.584,13.572.157,5.035-.574,10.125-1.883,14.983Z" fill="#fff"/>
      </g>
    </g>
    <g id="d" data-name="pZzD1W.tif">
      <g>
        <path d="M256.244,120.596c-.202.267-.982.211-1.308.326-.44.156-.199.562-.238.9-.079.683-.244,1.02-.059,1.762.285,1.141.167,1.511-.097,2.67-.734,3.214-2.633,7.651-3.996,10.717-1.163,2.616-2.776,5.991-5.504,7.219-5.523,2.487-13.482,3.755-19.517,3.626-3.511-.075-6.954-.704-10.208-1.866-.474-.169-2.72-1.096-2.929-1.429-.261-.415-.012-.53.025-.858.562-4.941-.56-10.157-2.538-14.698-.684-1.569-2.282-3.845-2.343-5.478-.041-1.095.499-1.107-.689-1.91-.834-.564-2.209-.69-2.207-1.941,0-.279.237-.924.551-.893.117.012,1.666,1.081,1.987,1.25,10.406,5.485,28.143,2.676,38.527-1.766,1.147-.491,2.811-1.255,3.866-1.887.109-.065.553-.343.58-.402.199-.423-.862-1.815-1.054-2.296-.465-1.164-.099-1.433,1.133-1.438,2.261-.009,3.112,4.062,4.145,5.526.503.712,2.092,1.461,2.083,2.23,0,.058-.184.6-.211.636ZM249.349,119.115c-1.525.626-2.997,1.418-4.534,2.018-9.443,3.684-21.48,5.239-31.458,3.182-.783-.161-1.582-.372-2.336-.641l-.299.119c.365.852.642,1.649,1.131,2.467,4.199,7.026,14.823,6.748,21.741,4.858,4.742-1.295,10.625-4.271,14.049-7.837.995-1.036,2.169-2.675,1.706-4.166ZM246.552,138.807c2.473-3.954,4.791-9.784,5.179-14.441.033-.39.253-1.825-.341-1.659-3.078,3.798-6.847,6.815-11.391,8.71-.872.363-1.991.635-2.815,1.002-.291.13-.763.649-1.084.861-1.694,1.117-3.035,1.654-4.154,3.494-.793,1.303-1.756,5.05-3.837,3.887-1.503-.84.158-2.458.602-3.44.124-.275.163-.583.301-.853-.043-.202-.976,0-1.184.043-3.688.761-8.383,2.713-10.828,5.644-.106.127-.77.929-.802.985-.034.057-.283.951-.279,1.003l.155.222c.666.05,1.257.368,1.91.525,4.004.964,8.184,1.09,12.306.692,4.114-.397,11.034-1.518,14.264-4.211.784-.654,1.459-1.602,1.999-2.465Z"/>
        <path d="M234.867,149.561c.22-.06,1.082.233,1.18.37.675.938-.99,1.771-1.668,2.091-2.126,1.003-5.748,1.543-7.886.352-.379-.211-1.517-.888-.741-1.199,1.518-.608,3.453-.358,5.057-.523.908-.093,2.184-.292,3.037-.59.31-.108.732-.423,1.021-.501Z"/>
        <path d="M246.552,138.807c-.54.863-1.215,1.811-1.999,2.465-3.23,2.693-10.15,3.814-14.264,4.211-4.121.397-8.302.272-12.306-.692-.654-.157-1.244-.476-1.91-.525l-.155-.222c-.004-.052.245-.947.279-1.003.033-.055.696-.858.802-.985,2.445-2.931,7.14-4.884,10.828-5.644.208-.043,1.141-.245,1.184-.043-.138.27-.176.578-.301.853-.444.982-2.105,2.599-.602,3.44,2.081,1.163,3.044-2.583,3.837-3.887,1.12-1.84,2.46-2.377,4.154-3.494.321-.212.792-.731,1.084-.861.824-.367,1.943-.639,2.815-1.002,4.543-1.895,8.312-4.911,11.391-8.71.594-.166.374,1.269.341,1.659-.388,4.657-2.706,10.487-5.179,14.441Z" fill="#e01f26"/>
        <path d="M249.349,119.115c.462,1.491-.711,3.13-1.706,4.166-3.425,3.567-9.307,6.542-14.049,7.837-6.918,1.89-17.542,2.168-21.741-4.858-.489-.818-.766-1.614-1.131-2.467l.299-.119c.754.269,1.554.48,2.336.641,9.978,2.057,22.015.501,31.458-3.182,1.537-.6,3.009-1.392,4.534-2.018Z" fill="#fff"/>
      </g>
    </g>
    <g>
      <g>
        <g>
          <path d="M271.567,189.597l-2.641-28.598c-.112-2.056-1.812-3.666-3.871-3.666h-4.865c-1.507,0-2.878.873-3.514,2.24l-22.113,27.539,22.875,13.229,13.764-10.744" fill="#f4cd7d"/>
          <path d="M257.541,201.82l-24.831-14.361,22.922-28.547c.863-1.71,2.635-2.807,4.559-2.807h4.865c2.711,0,4.95,2.121,5.098,4.828l2.637,28.551-1.563.145.731.938-14.417,11.254ZM236.417,186.765l20.919,12.097,12.922-10.087-2.554-27.664c-.081-1.45-1.242-2.55-2.648-2.55h-4.865c-1.025,0-1.968.601-2.401,1.53l-.155.25-21.217,26.423Z"/>
        </g>
        <g>
          <path d="M308.775,187.112l-22.113-27.539c-.636-1.366-2.007-2.24-3.514-2.24h-4.865c-2.059,0-3.759,1.61-3.871,3.666l-2.641,28.598,21.122,7.359,15.882-9.844Z" fill="#f4cd7d"/>
          <path d="M293.043,198.308l-22.583-7.867,2.729-29.554c.143-2.661,2.382-4.782,5.094-4.782h4.865c1.924,0,3.695,1.097,4.559,2.807l22.895,28.514-17.559,10.883ZM273.083,188.753l19.661,6.85,14.205-8.804-21.337-26.573-.062-.134c-.434-.93-1.376-1.53-2.401-1.53h-4.865c-1.407,0-2.568,1.1-2.645,2.504l-2.556,27.688Z"/>
        </g>
        <g>
          <polygon points="323.905 213.72 310.955 196.48 294.366 213.23 323.905 213.72" fill="#f4cd7d"/>
          <path d="M326.395,214.989l-34.928-.578,19.616-19.807,15.312,20.385ZM297.264,212.05l24.15.4-10.587-14.096-13.563,13.695Z"/>
        </g>
        <g id="e" data-name="9a3AJW">
          <g>
            <path d="M337.129,254.679c-.076.272-1.273,1.449-1.65,1.625l-128.556.014c-2.032-1.483-2.282-3.344-2.494-5.695-.583-6.449-.703-20.766.025-27.077.711-6.165,7.038-5.689,8.04-2.279.411,1.4-.579,4.238.974,4.337.528-13.169,11.436-17.357,22.937-18.02-15.534-26.46,21.416-48.587,36.445-20.468,14.661-26.661,51.34-5.976,35.618,20.468,8.137-.846,18.463,3.799,20.517,12.28,2.6-.499,5.984-2.039,8.144.421v34.394ZM250.109,177.491c-18.679,3.184-20.321,33.047.838,35.621,27.189,3.307,25.311-40.078-.838-35.621ZM289.444,177.499c-21.256,2.611-20.51,38.523,4.606,35.731,22.39-2.489,19.031-38.634-4.606-35.731ZM308.25,210.248c-11.533,1.937-18.203,15.91-11.917,26.267,5.538,9.124,15.713,11.499,24.688,5.333,14.844-10.199,5.296-34.634-12.772-31.599ZM232.129,211.103c-15.625,1.776-20.085,14.716-12.775,27.87,2.988,5.377,5.783,5.806,11.74,6.276,7.438.587,15.328.208,18.573-7.607,5.564-13.397-2.375-28.264-17.539-26.54ZM267.299,211.052c-16.191,3.288-16.006,31.312,3.301,33.992,26.849,3.727,24.725-39.684-3.301-33.992ZM329.759,248.537h-116.693c-.852,0-2.866-2.015-2.866-2.866v-24.157l-3.288.472.852,28.578c-.062.86,1.588,2.887,2.026,2.887h124.063l.815-32.76c-3.085-.345-3.622-.107-4.006,2.933-1.033,8.173,1.044,16.799-.904,24.914ZM220.844,246.071l-3.434-4.333-4.745-11.212.807,16.378,7.372-.833ZM282.263,246.08h19.653l-7.366-6.964-2.47-5.317c-2.248,1.671-2.275,4.62-4.088,6.955-1.702,2.193-4.379,2.98-5.729,5.326ZM264.248,246.08c-3.466-3.568-8.325-6.373-9.837-11.462-3.356,3.166-3.936,8.237-8.172,11.064-.211,2.507.887.399,1.222.399h16.787Z"/>
            <path d="M250.109,177.491c26.149-4.457,28.027,38.928.838,35.621-21.159-2.574-19.516-32.437-.838-35.621Z" fill="#f4cd7d"/>
            <path d="M289.444,177.499c23.637-2.903,26.996,33.242,4.606,35.731-25.116,2.792-25.862-33.121-4.606-35.731Z" fill="#f4cd7d"/>
            <path d="M232.129,211.103c15.164-1.724,23.103,13.143,17.539,26.54-3.246,7.815-11.135,8.193-18.573,7.607-5.957-.47-8.752-.899-11.74-6.276-7.31-13.154-2.85-26.094,12.775-27.87Z" fill="#fff"/>
            <path d="M308.25,210.248c18.068-3.035,27.616,21.401,12.772,31.599-8.976,6.167-19.15,3.791-24.688-5.333-6.286-10.356.384-24.329,11.917-26.267Z" fill="#f4cd7d"/>
            <path d="M267.299,211.052c28.026-5.692,30.15,37.719,3.301,33.992-19.307-2.68-19.492-30.704-3.301-33.992Z" fill="#f4cd7d"/>
            <path d="M282.263,246.08c1.35-2.346,4.027-3.133,5.729-5.326,1.813-2.336,1.84-5.284,4.088-6.955l2.47,5.317,7.366,6.964h-19.653Z"/>
            <path d="M264.248,246.08h-16.787c-.334,0-1.432,2.108-1.222-.399,4.236-2.827,4.816-7.898,8.172-11.064,1.512,5.089,6.371,7.895,9.837,11.462Z"/>
            <polygon points="220.844 246.071 213.472 246.903 212.666 230.526 217.41 241.737 220.844 246.071" fill="#fff"/>
          </g>
        </g>
        <g>
          <path d="M195.472,189.597l-2.641-28.598c-.112-2.056-1.812-3.666-3.871-3.666h-4.865c-1.507,0-2.878.873-3.514,2.24l-22.113,27.539,22.875,13.229,13.764-10.744" fill="#f4cd7d"/>
          <path d="M181.446,201.82l-23-13.301c-.963-.557-1.204-1.842-.507-2.71l21.597-26.897c.863-1.71,2.635-2.807,4.559-2.807h4.865c2.711,0,4.95,2.121,5.098,4.828l2.637,28.551-1.564.145.731.938-14.417,11.254ZM160.322,186.765l20.918,12.097,12.922-10.087-2.554-27.664c-.08-1.45-1.241-2.55-2.648-2.55h-4.865c-1.025,0-1.968.601-2.401,1.53l-.155.25-21.217,26.423Z"/>
        </g>
        <g>
          <path d="M232.111,187.112l-22.113-27.539c-.636-1.366-2.007-2.24-3.514-2.24h-4.865c-2.059,0-3.759,1.61-3.871,3.666l-2.641,28.598,21.122,7.359,15.882-9.844Z" fill="#f4cd7d"/>
          <path d="M216.378,198.308l-22.583-7.867,2.729-29.554c.144-2.661,2.383-4.782,5.094-4.782h4.865c1.924,0,3.696,1.097,4.559,2.807l22.894,28.514-17.559,10.883ZM196.418,188.753l19.662,6.85,14.204-8.804-21.337-26.573-.062-.135c-.433-.929-1.375-1.53-2.401-1.53h-4.865c-1.407,0-2.568,1.1-2.645,2.504l-2.556,27.687Z"/>
        </g>
        <g>
          <polygon points="157.428 197.816 143.268 214.245 175.946 220.571 157.428 197.816" fill="#f4cd7d"/>
          <path d="M179.034,222.42l-38.08-7.372,16.501-19.145,21.579,26.517ZM145.582,213.443l27.275,5.28-15.456-18.993-11.82,13.713Z"/>
        </g>
        <g id="f" data-name="9a3AJW">
          <g>
            <path d="M132.671,253.451c-.438,0-2.088-2.027-2.026-2.887l-.852-28.578,3.288-.472v24.157c0,.852,2.015,2.866,2.866,2.866h124.634c-.235-.833-.474-1.667-.571-2.526l-17.197.061,8.18-8.177c-.013.098-.02.208-.027.32.408-.633.796-1.278,1.143-1.946.54-1.041,1.074-2.195,1.185-3.378.009-.095.008-.19.012-.285-.01-.308-.02-.615-.029-.922-.103-1.058-.379-2.114-.356-3.181.033-1.49-.032-2.98-.173-4.465-.143-1.498-.452-2.975-1.086-4.346-.068-.146-.031-.284.05-.384-2.362-8.126-12.407-12.551-20.363-11.724,15.722-26.444-20.957-47.129-35.618-20.468-15.029-28.119-51.979-5.992-36.445,20.468-11.502.662-22.409,4.851-22.937,18.02-1.553-.098-.562-2.936-.974-4.337-1.002-3.41-7.33-3.886-8.04,2.279-.728,6.311-.608,20.628-.025,27.077.212,2.351.462,4.212,2.494,5.695l128.556-.014c.377-.176,1.574-1.353,1.65-1.625l3.155-1.228h-130.493ZM170.341,246.081c-.334,0-1.433,2.108-1.222-.399,4.236-2.827,4.816-7.898,8.172-11.064,1.512,5.089,6.371,7.895,9.837,11.462h-16.787ZM205.144,246.081c1.35-2.346,4.027-3.133,5.729-5.326,1.813-2.336,1.84-5.284,4.088-6.955l2.471,5.317,7.366,6.965h-19.654ZM243.902,241.847c-8.976,6.167-19.15,3.791-24.688-5.333-6.286-10.356.384-24.329,11.917-26.267,18.068-3.035,27.616,21.401,12.772,31.599ZM212.324,177.499c23.637-2.903,26.995,33.242,4.606,35.731-25.116,2.792-25.862-33.121-4.606-35.731ZM193.48,245.044c-19.306-2.68-19.491-30.704-3.301-33.992,28.026-5.692,30.15,37.719,3.301,33.992ZM172.99,177.491c26.149-4.457,28.027,38.928.838,35.621-21.159-2.574-19.516-32.437-.838-35.621ZM155.01,211.103c15.164-1.724,23.103,13.143,17.539,26.54-3.246,7.815-11.135,8.193-18.573,7.607-5.957-.47-8.752-.899-11.74-6.276-7.31-13.155-2.85-26.094,12.775-27.87ZM140.29,241.737l3.434,4.333-7.372.833-.807-16.378,4.744,11.212Z"/>
            <path d="M172.99,177.491c26.149-4.457,28.027,38.928.838,35.621-21.159-2.574-19.516-32.437-.838-35.621Z" fill="#f4cd7d"/>
            <path d="M212.324,177.499c23.637-2.903,26.996,33.242,4.606,35.731-25.116,2.792-25.862-33.121-4.606-35.731Z" fill="#f4cd7d"/>
            <path d="M155.01,211.103c15.164-1.724,23.103,13.143,17.539,26.54-3.246,7.815-11.135,8.193-18.573,7.607-5.957-.47-8.752-.899-11.74-6.276-7.31-13.154-2.85-26.094,12.775-27.87Z" fill="#f4cd7d"/>
            <path d="M231.13,210.248c18.068-3.035,27.616,21.401,12.772,31.599-8.976,6.167-19.15,3.791-24.688-5.333-6.286-10.356.384-24.329,11.917-26.267Z" fill="#f4cd7d"/>
            <path d="M190.179,211.052c28.026-5.692,30.15,37.719,3.301,33.992-19.307-2.68-19.492-30.704-3.301-33.992Z" fill="#f4cd7d"/>
            <path d="M334.669,220.691c-3.085-.345-3.621-.107-4.006,2.933-1.033,8.173,1.044,16.799-.904,24.913h-193.812c-.852,0-2.866-2.015-2.866-2.866v-24.157l-3.288.472.852,28.578c-.062.86,1.588,2.888,2.026,2.888h130.493s70.689,0,70.689,0l.815-32.76Z" fill="#e5b52b"/>
            <path d="M205.144,246.08c1.35-2.346,4.027-3.133,5.729-5.326,1.813-2.336,1.84-5.284,4.088-6.955l2.47,5.317,7.366,6.964h-19.653Z"/>
            <path d="M187.128,246.08h-16.787c-.334,0-1.432,2.108-1.222-.399,4.236-2.827,4.816-7.898,8.172-11.064,1.512,5.089,6.371,7.895,9.837,11.462Z"/>
            <polygon points="143.725 246.071 136.353 246.903 135.546 230.526 140.29 241.737 143.725 246.071"/>
          </g>
        </g>
      </g>
      <path d="M207.596,186.033c-3.374,2.952-4.963,8.076-3.956,12.749.98,4.548,4.161,7.854,8.956,9.307,8.758,2.656,15.255-2.449,17.809-8.688,2.319-5.664,1.905-13.202-3.59-18.282,1.703,2.395,2.723,5.509,2.82,8.961.189,6.746-3.114,12.513-8.414,14.694-5.281,2.173-10.26.007-12.852-3.101-2.754-3.303-2.995-7.642-.63-11.325,1.668-2.598,4.156-3.909,7.012-3.703,2.827.207,5.438,1.919,6.496,4.26.842,1.862.573,3.855-.758,5.613-1.425,1.883-3.023,2.049-4.112,1.853-1.508-.269-2.853-1.424-3.117-2.29-.135-.445.041-.701.159-.814l.181-.175.231.1c1.594.683,2.894.603,3.564-.222.621-.764.593-2.048-.064-2.986-.844-1.203-2.398-1.523-4.265-.873-1.449.504-2.384,1.618-2.634,3.138-.349,2.122.687,4.599,2.519,6.022,1.876,1.458,4.304,1.648,6.836.54,3.087-1.353,4.859-4.278,4.738-7.825-.133-3.908-2.562-7.375-6.045-8.627-1.475-.53-2.919-.793-4.299-.793-2.459,0-4.716.832-6.585,2.468Z"/>
      <path d="M169.281,186.033c-3.374,2.952-4.963,8.076-3.956,12.749.98,4.548,4.161,7.854,8.956,9.307,8.758,2.656,15.255-2.449,17.809-8.688,2.319-5.664,1.905-13.202-3.59-18.282,1.703,2.395,2.723,5.509,2.82,8.961.189,6.746-3.114,12.513-8.414,14.694-5.281,2.173-10.26.007-12.852-3.101-2.754-3.303-2.995-7.642-.63-11.325,1.668-2.598,4.156-3.909,7.012-3.703,2.827.207,5.438,1.919,6.496,4.26.842,1.862.573,3.855-.758,5.613-1.425,1.883-3.023,2.049-4.112,1.853-1.508-.269-2.853-1.424-3.117-2.29-.135-.445.041-.701.159-.814l.181-.175.231.1c1.594.683,2.894.603,3.564-.222.621-.764.593-2.048-.064-2.986-.844-1.203-2.398-1.523-4.265-.873-1.449.504-2.384,1.618-2.634,3.138-.349,2.122.687,4.599,2.519,6.022,1.876,1.458,4.304,1.648,6.836.54,3.087-1.353,4.859-4.278,4.738-7.825-.133-3.908-2.562-7.375-6.045-8.627-1.475-.53-2.919-.793-4.299-.793-2.459,0-4.716.832-6.585,2.468Z"/>
      <path d="M149.663,218.973c-3.374,2.952-4.963,8.076-3.956,12.749.98,4.548,4.161,7.854,8.956,9.307,8.758,2.656,15.255-2.449,17.809-8.688,2.319-5.664,1.905-13.202-3.59-18.282,1.703,2.395,2.723,5.509,2.82,8.961.189,6.746-3.114,12.513-8.414,14.694-5.281,2.173-10.26.007-12.852-3.101-2.754-3.303-2.995-7.642-.63-11.325,1.668-2.598,4.156-3.909,7.012-3.703,2.827.207,5.438,1.919,6.496,4.26.842,1.862.573,3.855-.758,5.613-1.425,1.883-3.023,2.049-4.112,1.853-1.508-.269-2.853-1.424-3.117-2.29-.135-.445.041-.701.159-.814l.181-.175.231.1c1.594.683,2.894.603,3.564-.222.621-.764.593-2.048-.064-2.986-.844-1.203-2.398-1.523-4.265-.873-1.449.504-2.384,1.618-2.634,3.138-.349,2.122.687,4.599,2.519,6.022,1.876,1.458,4.304,1.648,6.836.54,3.087-1.353,4.859-4.278,4.738-7.825-.133-3.908-2.562-7.375-6.045-8.627-1.475-.53-2.919-.793-4.299-.793-2.459,0-4.716.832-6.585,2.468Z"/>
      <path d="M188.523,218.973c-3.374,2.952-4.963,8.076-3.956,12.749.98,4.548,4.161,7.854,8.956,9.307,8.758,2.656,15.255-2.449,17.809-8.688,2.319-5.664,1.905-13.202-3.59-18.282,1.703,2.395,2.723,5.509,2.82,8.961.189,6.746-3.114,12.513-8.414,14.694-5.281,2.173-10.26.007-12.852-3.101-2.754-3.303-2.995-7.642-.63-11.325,1.668-2.598,4.156-3.909,7.012-3.703,2.827.207,5.438,1.919,6.496,4.26.842,1.862.573,3.855-.758,5.613-1.425,1.883-3.023,2.049-4.112,1.853-1.508-.269-2.853-1.424-3.117-2.29-.135-.445.041-.701.159-.814l.181-.175.231.1c1.594.683,2.894.603,3.564-.222.621-.764.593-2.048-.064-2.986-.844-1.203-2.398-1.523-4.265-.873-1.449.504-2.384,1.618-2.634,3.138-.349,2.122.687,4.599,2.519,6.022,1.876,1.458,4.304,1.648,6.836.54,3.087-1.353,4.859-4.278,4.738-7.825-.133-3.908-2.562-7.375-6.045-8.627-1.475-.53-2.919-.793-4.299-.793-2.459,0-4.716.832-6.585,2.468Z"/>
      <path d="M227.066,218.973c-3.374,2.952-4.963,8.076-3.956,12.749.98,4.548,4.161,7.854,8.956,9.307,8.758,2.656,15.255-2.449,17.809-8.688,2.319-5.664,1.905-13.202-3.59-18.282,1.703,2.395,2.723,5.509,2.82,8.961.189,6.746-3.114,12.513-8.414,14.694-5.281,2.173-10.26.007-12.852-3.101-2.754-3.303-2.995-7.642-.63-11.325,1.668-2.598,4.156-3.909,7.012-3.703,2.827.207,5.438,1.919,6.496,4.26.842,1.862.573,3.855-.758,5.613-1.425,1.883-3.023,2.049-4.112,1.853-1.508-.269-2.853-1.424-3.117-2.29-.135-.445.041-.701.159-.814l.181-.175.231.1c1.594.683,2.894.603,3.564-.222.621-.764.593-2.048-.064-2.986-.844-1.203-2.398-1.523-4.265-.873-1.449.504-2.384,1.618-2.634,3.138-.349,2.122.687,4.599,2.519,6.022,1.876,1.458,4.304,1.648,6.836.54,3.087-1.353,4.859-4.278,4.738-7.825-.133-3.908-2.562-7.375-6.045-8.627-1.475-.53-2.919-.793-4.299-.793-2.459,0-4.716.832-6.585,2.468Z"/>
      <path d="M265.113,218.973c-3.374,2.952-4.963,8.076-3.956,12.749.98,4.548,4.161,7.854,8.956,9.307,8.758,2.656,15.255-2.449,17.809-8.688,2.319-5.664,1.905-13.202-3.59-18.282,1.703,2.395,2.723,5.509,2.82,8.961.189,6.746-3.114,12.513-8.414,14.694-5.281,2.173-10.26.007-12.852-3.101-2.754-3.303-2.995-7.642-.63-11.325,1.668-2.598,4.156-3.909,7.012-3.703,2.827.207,5.438,1.919,6.496,4.26.842,1.862.573,3.855-.758,5.613-1.425,1.883-3.023,2.049-4.112,1.853-1.508-.269-2.853-1.424-3.117-2.29-.135-.445.041-.701.159-.814l.181-.175.231.1c1.594.683,2.894.603,3.564-.222.621-.764.593-2.048-.064-2.986-.844-1.203-2.398-1.523-4.265-.873-1.449.504-2.384,1.618-2.634,3.138-.349,2.122.687,4.599,2.519,6.022,1.876,1.458,4.304,1.648,6.836.54,3.087-1.353,4.859-4.278,4.738-7.825-.133-3.908-2.562-7.375-6.045-8.627-1.475-.53-2.919-.793-4.299-.793-2.459,0-4.716.832-6.585,2.468Z"/>
      <path d="M304.067,218.973c-3.374,2.952-4.963,8.076-3.956,12.749.98,4.548,4.161,7.854,8.956,9.307,8.758,2.656,15.255-2.449,17.809-8.688,2.319-5.664,1.905-13.202-3.59-18.282,1.703,2.395,2.723,5.509,2.82,8.961.189,6.746-3.114,12.513-8.414,14.694-5.281,2.173-10.26.007-12.852-3.101-2.754-3.303-2.995-7.642-.63-11.325,1.668-2.598,4.156-3.909,7.012-3.703,2.827.207,5.438,1.919,6.496,4.26.842,1.862.573,3.855-.758,5.613-1.425,1.883-3.023,2.049-4.112,1.853-1.508-.269-2.853-1.424-3.117-2.29-.135-.445.041-.701.159-.814l.181-.175.231.1c1.594.683,2.894.603,3.564-.222.621-.764.593-2.048-.064-2.986-.844-1.203-2.398-1.523-4.265-.873-1.449.504-2.384,1.618-2.634,3.138-.349,2.122.687,4.599,2.519,6.022,1.876,1.458,4.304,1.648,6.836.54,3.087-1.353,4.859-4.278,4.738-7.825-.133-3.908-2.562-7.375-6.045-8.627-1.475-.53-2.919-.793-4.299-.793-2.459,0-4.716.832-6.585,2.468Z"/>
      <path d="M246.512,186.033c-3.374,2.952-4.963,8.076-3.956,12.749.98,4.548,4.161,7.854,8.956,9.307,8.758,2.656,15.255-2.449,17.809-8.688,2.319-5.664,1.905-13.202-3.59-18.282,1.703,2.395,2.723,5.509,2.82,8.961.189,6.746-3.114,12.513-8.414,14.694-5.281,2.173-10.26.007-12.852-3.101-2.754-3.303-2.995-7.642-.63-11.325,1.668-2.598,4.156-3.909,7.012-3.703,2.827.207,5.438,1.919,6.496,4.26.842,1.862.573,3.855-.758,5.613-1.425,1.883-3.023,2.049-4.112,1.853-1.508-.269-2.853-1.424-3.117-2.29-.135-.445.041-.701.159-.814l.181-.175.231.1c1.594.683,2.894.603,3.564-.222.621-.764.593-2.048-.064-2.986-.844-1.203-2.398-1.523-4.265-.873-1.449.504-2.384,1.618-2.634,3.138-.349,2.122.687,4.599,2.519,6.022,1.876,1.458,4.304,1.648,6.836.54,3.087-1.353,4.859-4.278,4.738-7.825-.133-3.908-2.562-7.375-6.045-8.627-1.475-.53-2.919-.793-4.299-.793-2.459,0-4.716.832-6.585,2.468Z"/>
      <path d="M284.423,186.033c-3.374,2.952-4.963,8.076-3.956,12.749.98,4.548,4.161,7.854,8.956,9.307,8.758,2.656,15.255-2.449,17.809-8.688,2.319-5.664,1.905-13.202-3.59-18.282,1.703,2.395,2.723,5.509,2.82,8.961.189,6.746-3.114,12.513-8.414,14.694-5.281,2.173-10.26.007-12.852-3.101-2.754-3.303-2.995-7.642-.63-11.325,1.668-2.598,4.156-3.909,7.012-3.703,2.827.207,5.438,1.919,6.496,4.26.842,1.862.573,3.855-.758,5.613-1.425,1.883-3.023,2.049-4.112,1.853-1.508-.269-2.853-1.424-3.117-2.29-.135-.445.041-.701.159-.814l.181-.175.231.1c1.594.683,2.894.603,3.564-.222.621-.764.593-2.048-.064-2.986-.844-1.203-2.398-1.523-4.265-.873-1.449.504-2.384,1.618-2.634,3.138-.349,2.122.687,4.599,2.519,6.022,1.876,1.458,4.304,1.648,6.836.54,3.087-1.353,4.859-4.278,4.738-7.825-.133-3.908-2.562-7.375-6.045-8.627-1.475-.53-2.919-.793-4.299-.793-2.459,0-4.716.832-6.585,2.468Z"/>
    </g>
  </g>
  <g>
    <g>
      <path d="M6.434,270.56c-2.997-3.176-5.097-7.699-4.302-11.452.305-1.621,1.467-3.219,2.869-4.207,7.102-5.201,14.131-10.832,20.489-16.997,9.804-9.583,18.02-20.673,26.57-31.409.799-.921,2.024-1.744,3.401-1.875,7.482-.556,14.374,4.45,19.203,9.567,8.242,8.736,15.657,25.255,10.679,37.125-2.041,5.26-6.795,9.413-11.843,11.842-12.977,6.575-28.565-.4-39.771-7.504-1.775,2.008-3.55,4.016-5.329,6.196-.985,1.429-6.619,9.248-7.859,10.585-4.589,4.33-10.109,2.366-14.106-1.869ZM45.056,243.79c6.721,1.998,15.437,3.281,21.735-.827,6.127-4.112,3.03-12.698-2.309-18.002-6.53,6.161-12.981,12.582-19.426,18.83Z" fill="#ffcd3e"/>
      <path d="M14.821,276.807c-3.293,0-6.744-1.656-9.81-4.904h0c-2.997-3.175-5.829-8.31-4.793-13.2.375-1.991,1.778-4.078,3.655-5.401,8.035-5.884,14.669-11.387,20.254-16.802,7.931-7.754,14.967-16.704,21.771-25.359,1.541-1.959,3.08-3.918,4.631-5.864,1.311-1.514,3.021-2.439,4.745-2.604,8.658-.651,16.098,5.177,20.812,10.172,4.571,4.846,8.481,11.444,10.728,18.105,1.869,5.54,3.443,13.701.332,21.119-2.02,5.209-6.692,9.91-12.799,12.848-10.613,5.377-24.159,3.119-40.249-6.73-1.365,1.551-2.757,3.151-4.136,4.837-.935,1.345-6.597,9.236-7.989,10.737l-.092.093c-2.098,1.979-4.534,2.955-7.062,2.955ZM56.589,206.533c-.327,0-.654.012-.983.036-.811.078-1.607.676-2.069,1.207-1.493,1.877-3.027,3.829-4.562,5.782-6.882,8.754-13.998,17.806-22.118,25.744-5.721,5.547-12.491,11.164-20.7,17.176-1.073.757-1.906,1.951-2.102,2.991-.595,2.811.937,6.711,3.802,9.747h0c1.868,1.979,6.697,6.106,11.29,1.836,1.191-1.324,6.624-8.844,7.642-10.319l.095-.127c1.814-2.222,3.626-4.271,5.379-6.254l1.104-1.25,1.409.894c15.467,9.804,28.199,12.296,37.839,7.411,5.258-2.53,9.219-6.462,10.903-10.805,4.402-10.496-1.774-26.062-10.278-35.074-3.232-3.426-9.578-8.995-16.651-8.995ZM56.506,247.635c-3.585,0-7.592-.656-12.008-1.969l-3.206-.953,2.401-2.328c2.145-2.078,4.29-4.176,6.438-6.277,4.248-4.153,8.64-8.448,13.007-12.569l1.378-1.301,1.344,1.336c3.336,3.314,6.719,8.746,6.21,14.052-.278,2.901-1.727,5.309-4.19,6.963-3.113,2.031-6.917,3.047-11.375,3.047ZM48.906,242.777c5.531,1.242,12.083,1.636,16.816-1.452,1.478-.992,2.288-2.329,2.455-4.072.265-2.769-1.224-6.42-3.792-9.504-3.868,3.678-7.749,7.474-11.517,11.157-1.321,1.293-2.642,2.584-3.962,3.871Z"/>
    </g>
    <g>
      <path d="M77.301,331.243c-3.148-2.271-4.363-7.636-3.905-11.795.414-3.889,1.899-7.605,3.143-11.196-7.669,5.237-17.18,9.295-25.542,3.26-5.705-4.117-8.418-11.76-5.984-19.279,2.418-7.082,7.087-13.137,13.397-17.111,10.001-6.396,22.754-7.068,32.491-.039,4.525,3.266,8.728,8.843,9.365,14.388.137.846.06,1.989-.507,2.775-3.364,4.454-6.335,9.193-8.18,14.443-1.632,4.956-1.985,10.836-.317,15.779.612,1.638.492,3.049-.474,4.595-2.02,3.629-7.095,6.1-11.237,5.206-.803-.131-1.563-.529-2.251-1.027ZM61.931,296.363c1.771,1.278,5.169,1.337,7.076.768,1.399-.486,2.77-1.143,4.043-1.871,4.37-2.531,8.04-6.166,11.962-9.319-5.29-5.315-14.726-2.399-20.39,2.34-2.195,2.005-5.003,5.066-3.407,7.415.126.241.421.454.716.667Z" fill="#ffcd3e"/>
      <path d="M81.306,334.407c-.736,0-1.463-.073-2.167-.226-.931-.148-1.938-.598-2.982-1.353h0c-3.947-2.847-5.207-9.044-4.706-13.596.238-2.236.793-4.38,1.457-6.461-9.03,4.884-16.607,4.979-23.055.325-6.619-4.775-9.312-13.403-6.7-21.468,2.587-7.578,7.632-14.019,14.216-18.163,11.152-7.132,24.769-7.124,34.679.028,4.203,3.034,9.387,8.98,10.164,15.753.239,1.474-.08,3.056-.865,4.144-3.861,5.111-6.37,9.532-7.92,13.946-1.605,4.875-1.725,10.311-.309,14.504.81,2.165.598,4.231-.669,6.259-2.08,3.74-6.77,6.306-11.142,6.307ZM80.326,303.295l-1.938,5.597c-.186.537-.377,1.077-.57,1.621-1.056,2.979-2.148,6.059-2.476,9.142-.384,3.49.574,8.176,3.104,10.001l.003.002c.532.386,1.009.614,1.418.682,3.31.706,7.567-1.273,9.212-4.227.677-1.09.759-1.868.351-2.96-1.723-5.101-1.61-11.303.291-17.075,1.701-4.843,4.391-9.601,8.478-15.011.125-.174.227-.725.137-1.285-.604-5.24-4.741-10.342-8.578-13.113-8.6-6.206-20.491-6.166-30.292.103-5.84,3.677-10.311,9.39-12.6,16.094-2.077,6.414.04,13.281,5.277,17.06,6.043,4.362,13.663,3.287,23.293-3.289l4.891-3.34ZM66.283,299.422c-1.916,0-4.005-.396-5.497-1.474-.382-.274-.895-.645-1.238-1.227-2.649-4.036,2.166-8.435,3.755-9.885,6.74-5.642,17.083-8.319,23.096-2.275l1.535,1.542-1.696,1.363c-1.116.896-2.243,1.86-3.333,2.793-2.763,2.364-5.62,4.809-8.875,6.693-1.487.852-2.958,1.531-4.381,2.025-.893.268-2.091.443-3.366.443ZM62.837,294.601c.072.06.156.115.238.175h.001c1.13.816,3.862.932,5.371.48,1.111-.389,2.361-.968,3.63-1.694,2.937-1.7,5.655-4.026,8.284-6.275.494-.422.995-.851,1.501-1.278-4.809-2.579-11.94.391-15.985,3.774-2.855,2.61-3.456,4.207-3.044,4.813l.004.005Z"/>
    </g>
    <g>
      <path d="M94.323,340.008c-2.032-1.089-3.654-3.198-3.207-5.573.211-1.677,3.328-8.263,4.131-9.76,8.838-18.799,18.21-37.311,28.01-55.594,1.662-3.1,4.997-3.929,8.299-3.672,1.405.203,2.91.734,4.3,1.478,2.459,1.318,4.517,3.385,4.719,5.834.225,1.635-.585,3.402-1.708,4.727-1.345,1.481-2.426,3.242-3.614,4.945-5.332,8.152-10.024,16.648-14.716,25.145-5.266,9.565-10.53,19.13-14.94,29.154-.409,1.019-1.089,2.031-1.868,2.714-2.502,2.1-6.519,2.149-9.406.602Z" fill="#ffcd3e"/>
      <path d="M98.667,343.031c-1.804,0-3.642-.428-5.268-1.299h0c-3.099-1.661-4.748-4.643-4.215-7.609.345-2.337,3.842-9.422,4.311-10.32,8.476-18.028,17.909-36.75,28.037-55.646,1.822-3.397,5.432-5.059,10.176-4.698l.128.015c1.605.232,3.314.816,4.944,1.69,3.393,1.819,5.482,4.493,5.739,7.345.259,2.02-.526,4.277-2.16,6.205-.968,1.068-1.777,2.264-2.634,3.529-.287.423-.574.849-.868,1.27-5.267,8.053-10.016,16.654-14.608,24.972-5.152,9.359-10.481,19.038-14.861,28.996-.509,1.271-1.382,2.532-2.369,3.397-1.697,1.425-3.997,2.154-6.352,2.154ZM95.247,338.283c2.358,1.265,5.464,1.102,7.224-.376.492-.432,1.006-1.188,1.31-1.944,4.475-10.176,9.847-19.933,15.042-29.368,4.628-8.383,9.413-17.05,14.792-25.273.316-.454.593-.864.87-1.272.896-1.323,1.822-2.692,2.934-3.916.858-1.016,1.342-2.239,1.217-3.146l-.012-.106c-.124-1.499-1.504-3.096-3.693-4.269-1.193-.64-2.466-1.085-3.593-1.258-2.183-.158-5.033.181-6.357,2.651-10.104,18.85-19.512,37.522-27.964,55.501l-.046.093c-1.075,2.004-3.767,7.957-3.914,9.08l-.019.117c-.272,1.445.914,2.792,2.208,3.486h0Z"/>
    </g>
    <g>
      <path d="M157.512,366.087c-3.671-1.262-6.389-6.044-7.157-10.158-.731-3.843-.387-7.829-.237-11.626-5.823,7.235-13.749,13.876-23.501,10.523-6.654-2.287-11.466-8.815-11.315-16.717.262-7.478,2.976-14.628,7.862-20.26,7.718-9.022,19.729-13.36,31.087-9.456,5.278,1.814,10.917,5.934,13.133,11.057.377.771.635,1.886.32,2.803-1.929,5.238-3.399,10.635-3.642,16.195-.126,5.217,1.241,10.946,4.27,15.194,1.061,1.391,1.356,2.774.879,4.535-.882,4.058-5.022,7.895-9.246,8.239-.807.108-1.649-.054-2.452-.33ZM132.691,337.159c2.065.71,5.334-.22,6.995-1.316,1.197-.871,2.32-1.897,3.327-2.962,3.449-3.69,5.909-8.232,8.748-12.387-6.605-3.553-14.789,1.972-18.836,8.149-1.52,2.557-3.32,6.3-1.111,8.084.19.194.534.312.878.431Z" fill="#ffcd3e"/>
      <path d="M159.43,368.412c-.769,0-1.625-.155-2.554-.476-4.603-1.582-7.604-7.147-8.443-11.647-.42-2.21-.51-4.422-.479-6.605-7.229,7.29-14.452,9.577-21.972,6.994-7.719-2.653-12.797-10.13-12.635-18.605.28-8.002,3.241-15.628,8.34-21.505,8.606-10.058,21.641-13.995,33.201-10.024,4.902,1.686,11.586,5.874,14.293,12.13.657,1.34.811,2.946.374,4.217-2.213,6.013-3.333,10.972-3.538,15.645-.123,5.129,1.338,10.366,3.909,13.973,1.402,1.836,1.799,3.875,1.174,6.182-1.06,4.888-5.994,9.272-10.976,9.679-.223.03-.454.045-.694.045ZM152.308,338.463l-.234,5.918c-.022.564-.049,1.133-.076,1.705-.148,3.16-.301,6.429.279,9.478.644,3.451,2.919,7.659,5.871,8.673h0c.624.216,1.148.295,1.558.241,3.373-.278,6.874-3.411,7.592-6.715.333-1.238.185-2.007-.522-2.934-3.128-4.385-4.817-10.354-4.671-16.428.224-5.127,1.419-10.461,3.762-16.824.069-.204.007-.759-.241-1.268-2.098-4.843-7.536-8.526-12.012-10.065-10.031-3.447-21.4.037-28.964,8.878-4.523,5.213-7.146,11.977-7.393,19.056-.128,6.74,3.889,12.7,9.996,14.799,7.051,2.424,14.029-.816,21.341-9.899l3.714-4.614ZM134.361,339.363c-.802,0-1.586-.106-2.306-.354h0c-.444-.153-1.042-.358-1.539-.815-3.707-3.094-.373-8.701.727-10.551,4.815-7.353,13.935-12.915,21.444-8.872l1.916,1.03-1.227,1.796c-.807,1.181-1.604,2.427-2.374,3.633-1.961,3.066-3.988,6.236-6.561,8.987-1.18,1.248-2.391,2.324-3.604,3.208-1.462.967-4.051,1.938-6.476,1.938ZM133.048,335.211c.086.036.184.065.279.098h0c1.317.455,3.965-.23,5.281-1.098.947-.691,1.975-1.608,2.983-2.674,2.319-2.48,4.249-5.497,6.114-8.415.348-.545.702-1.098,1.061-1.651-5.348-1.075-11.315,3.835-14.205,8.245-1.976,3.327-2.088,5.03-1.518,5.491l.005.004Z"/>
    </g>
    <g>
      <path d="M194.528,371.205c-10.12-1.189-17.144-8.977-18.782-18.941-.928-5.605.021-11.6,2.104-16.852,3.961-9.795,15.596-15.266,25.837-14.062.482.056.844.099,1.325.156,8.136,1.445,16.088,8.609,11.05,15.1-2.012,2.573-5.237,4.026-8.008,3.7-1.928-.226-3.621-1.402-4.465-3.579-.581-1.288-1.135-2.818-2.282-3.442-1.028-.61-2.665-.191-3.727.539-2.154,1.702-3.82,4.436-4.748,7.136-1.077,2.927-1.339,6.195-.849,9.305.503,2.99,1.942,6.335,4.472,6.632.482.057,1.099.008,1.743-.283,1.666-.66,2.842-2.354,4.202-3.537,2.183-1.942,5.031-3.317,8.044-2.963,6.505.764,9.305,9.155,4.077,14.159-2.616,2.502-8.639,5.946-12.126,6.514-2.508.561-5.216.73-7.866.418Z" fill="#ffcd3e"/>
      <path d="M197.19,373.316c-.973,0-1.94-.056-2.89-.167-10.595-1.245-18.635-9.318-20.484-20.567-.927-5.598-.14-11.952,2.215-17.891,4.087-10.107,16.071-16.67,27.884-15.284l1.439.172c6.275,1.115,11.885,5.081,13.642,9.645,1.127,2.928.634,5.976-1.389,8.581-2.436,3.115-6.271,4.852-9.782,4.444-2.776-.325-4.977-2.062-6.043-4.77l-.192-.435c-.335-.764-.794-1.811-1.218-2.041-.255-.116-1.001-.016-1.635.399-1.668,1.342-3.181,3.65-4.055,6.192-.945,2.572-1.213,5.529-.767,8.365.464,2.75,1.629,4.859,2.769,4.993.129.016.393.02.709-.123.838-.335,1.578-1.097,2.36-1.903.43-.443.875-.902,1.363-1.327,2.91-2.587,6.311-3.812,9.557-3.429,3.715.437,6.779,2.963,7.996,6.595,1.29,3.852.219,8.036-2.795,10.921-2.834,2.711-9.155,6.353-13.104,7.021-1.822.404-3.711.608-5.579.608ZM200.818,323.14c-9.104,0-18.065,5.366-21.154,13.006-2.093,5.275-2.8,10.89-1.987,15.799,1.559,9.484,8.263,16.281,17.08,17.317h0c2.355.277,4.849.144,7.21-.385l.113-.022c3.073-.5,8.76-3.77,11.087-5.996,1.937-1.853,2.606-4.414,1.79-6.851-.741-2.212-2.514-3.688-4.742-3.95-2.865-.343-5.311,1.409-6.516,2.48-.379.33-.748.71-1.139,1.113-.987,1.019-2.107,2.172-3.643,2.781-1.033.468-2.042.483-2.692.407-3.056-.36-5.363-3.444-6.173-8.251-.56-3.556-.232-7.111.942-10.306,1.121-3.26,3.083-6.188,5.372-7.995l.104-.077c1.582-1.087,3.998-1.699,5.833-.609,1.536.833,2.275,2.518,2.869,3.87l.24.548c.674,1.737,1.932,2.232,2.869,2.342,2.115.249,4.681-.97,6.239-2.962,1.195-1.54,1.466-3.103.824-4.771-1.244-3.231-5.803-6.314-10.619-7.188l-1.267-.148c-.877-.104-1.761-.153-2.641-.153Z"/>
    </g>
    <g>
      <path d="M229.741,373.553c-1.144-.503-2.067-1.27-2.542-2.443-1.192-2.325-2.394-13.91-2.762-16.557-2.459-18.533-4.435-37.113-6.18-55.834-.496-5.315,5.065-8.392,9.656-8.82,2.777-.26,6.02.535,7.366,3.212.595,1.163.73,2.612.612,3.964-.516,4.921-.295,9.896-.075,14.871.316,8.62.996,17.208,1.674,25.795,3.589-5.939,9.989-11.775,17.238-12.45,9.903-.923,14.734,7.764,16.622,16.239,1.423,7.42,1.154,14.999,2.203,22.334.102,1.087-.027,2.318-.684,3.111-1.379,2.198-4.354,2.964-6.89,3.201-3.987.372-8.361-.805-9.456-4.723-1.616-5.576-.356-11.663-.425-17.627.062-1.956-.057-5.843-1.839-6.651-.516-.318-1.011-.393-1.615-.336-6.402.596-10.214,14.598-11.092,19.553-.239,1.362-.894,7.395-1.398,8.537-.994,2.408-3.504,4.226-6.007,4.825-1.438.256-3.02.281-4.404-.199Z" fill="#ffcd3e"/>
      <path d="M232.205,375.888c-1.124,0-2.174-.163-3.105-.486l-.145-.057c-1.71-.751-2.899-1.903-3.539-3.426-.924-1.911-1.697-7.119-2.638-14.874-.117-.964-.212-1.742-.278-2.222-2.241-16.888-4.208-34.653-6.191-55.922-.286-3.066,1.015-5.896,3.664-7.966,2.087-1.632,4.915-2.72,7.759-2.984,3.292-.309,7.471.654,9.296,4.281.881,1.723.93,3.678.813,5.012-.504,4.805-.284,9.781-.071,14.595.25,6.827.735,13.715,1.257,20.47,3.83-4.454,9.248-8.381,15.52-8.966,9.2-.845,16.007,5.619,18.714,17.762.832,4.337,1.105,8.668,1.37,12.855.201,3.186.409,6.479.859,9.626.13,1.365.042,3.154-1.028,4.53-1.489,2.284-4.281,3.632-8.302,4.007-5.798.547-10.327-1.869-11.522-6.145-1.192-4.114-.939-8.418-.694-12.58.107-1.833.219-3.729.198-5.551.098-3.182-.455-4.679-.737-4.919l-.172-.089c-.079-.05-.13-.078-.409-.055-4.089.381-8.055,10.667-9.345,17.946-.065.374-.164,1.126-.284,2.032-.528,3.986-.85,6.043-1.249,6.952-1.157,2.803-4.047,5.15-7.344,5.939l-.112.023c-.784.139-1.55.209-2.283.209ZM230.455,371.729c.886.29,2.021.326,3.29.107,2.03-.504,3.917-2.001,4.6-3.655.28-.729.746-4.242.97-5.931.129-.978.237-1.789.309-2.197.148-.833,3.703-20.312,12.838-21.164,1.039-.096,1.906.083,2.724.56,2.047,1.017,3.012,3.854,2.868,8.438.022,1.875-.093,3.841-.204,5.741-.235,4.008-.458,7.794.552,11.278,1.041,3.721,6.339,3.417,7.396,3.32,1.927-.18,4.431-.723,5.415-2.292l.15-.209c.18-.216.323-.818.243-1.681-.461-3.205-.674-6.577-.88-9.838-.258-4.066-.523-8.271-1.297-12.309-1.298-5.822-4.935-15.552-14.519-14.659-6.872.641-12.776,6.604-15.745,11.515l-3.146,5.206-.489-6.195c-.665-8.421-1.352-17.128-1.668-25.747-.22-4.962-.445-10.088.085-15.146.098-1.129-.046-2.161-.408-2.869-.945-1.879-3.438-2.342-5.441-2.154-2.088.194-4.223,1.006-5.713,2.171-1.607,1.256-2.34,2.777-2.178,4.52,1.978,21.217,3.939,38.935,6.172,55.758.067.482.165,1.284.285,2.277.4,3.298,1.465,12.058,2.278,13.645l.072.158c.148.367.46.902,1.442,1.353Z"/>
    </g>
    <g>
      <path d="M280.43,308.888c-1.405.377-2.938.286-4.266.014-3.721-.76-6.877-4.559-6.384-8.335.408-3.627,2.974-6.702,6.137-7.55,1.289-.347,2.671-.341,4.032.048,5.591,1.638,8.086,8.128,4.61,12.955-.889,1.369-2.606,2.458-4.129,2.868ZM294.778,364.193c-1.29.346-2.938.286-4.213-.25-1.391-.506-2.268-1.903-2.88-3.246-4.191-10.932-9.32-21.613-12.371-32.976-1.353-5.039,2.781-9.289,7.82-10.641,2.577-.692,6.172-.401,7.918,1.893.815,1.164,1.161,2.451,1.273,3.803.511,10.791,4.459,21.285,8.43,31.398,1.42,3.888-1.127,7.963-4.953,9.62-.353.094-.673.306-1.023.4Z" fill="#ffcd3e"/>
      <path d="M293.063,366.363c-1.142,0-2.286-.209-3.257-.617-1.561-.566-2.866-1.964-3.902-4.239l-.047-.111c-1.274-3.323-2.664-6.691-4.008-9.949-3.086-7.479-6.276-15.212-8.426-23.219-.791-2.946-.125-5.942,1.876-8.436,1.74-2.168,4.342-3.803,7.326-4.603,3.306-.89,7.677-.43,9.981,2.597.981,1.397,1.512,2.957,1.666,4.829.485,10.214,4.047,20.008,8.302,30.843,1.693,4.635-.948,9.943-5.997,12.13l-.274.095c-.065.021-.135.059-.206.091-.202.093-.479.219-.809.308h-.004c-.704.189-1.463.282-2.222.282ZM289.489,359.937c.563,1.222,1.15,1.951,1.745,2.168.915.381,2.095.448,3.028.2.072-.023.141-.06.21-.091.17-.078.391-.179.65-.262,2.715-1.224,4.859-4.189,3.793-7.108-4.367-11.119-8.038-21.233-8.547-31.976-.093-1.109-.387-2.012-.921-2.773-1.087-1.428-3.817-1.661-5.809-1.126-2.155.578-4.082,1.771-5.288,3.273-.849,1.058-1.737,2.778-1.148,4.97,2.084,7.764,5.226,15.378,8.264,22.742,1.346,3.261,2.736,6.632,4.022,9.982ZM278.397,311.094c-.996,0-1.909-.129-2.624-.274-4.913-1.003-8.546-5.814-7.934-10.506.487-4.33,3.603-8.122,7.571-9.187,1.644-.442,3.4-.423,5.075.057,3.332.977,5.972,3.473,7.074,6.683,1.083,3.157.568,6.546-1.413,9.297-1.035,1.598-3.101,3.046-5.209,3.614h-.002c-.86.23-1.728.316-2.539.316ZM277.835,294.722c-.478,0-.951.062-1.409.185-2.414.647-4.391,3.12-4.701,5.88-.349,2.674,1.956,5.612,4.831,6.199.886.18,2.188.328,3.367.013,1.172-.316,2.432-1.176,2.996-2.045,1.283-1.784,1.606-3.876.94-5.816-.69-2.01-2.358-3.578-4.461-4.194-.513-.146-1.04-.221-1.563-.221Z"/>
    </g>
    <g>
      <path d="M322.056,355.82c-1.222.537-2.861.726-4.203.388-1.451-.289-2.53-1.538-3.337-2.773-5.795-10.175-12.478-19.959-17.209-30.733-2.098-4.777,1.347-9.602,6.122-11.701,2.444-1.074,6.041-1.329,8.114.675.982,1.027,1.519,2.249,1.832,3.568.398,1.812.86,3.465,1.369,5.228,1.706-6.976,5.62-14.657,12.507-17.682,9.218-4.05,16.605,2.51,20.896,10.166,3.691,6.594,5.938,13.821,9.137,20.5.549.951.815,2.158.441,3.117-.614,2.522-3.308,4.235-5.529,5.212-3.665,1.61-8.187,1.873-10.463-1.499-3.293-4.782-4.128-10.907-5.963-16.593-.559-1.874-1.898-5.527-3.843-5.732-.591-.138-1.083-.054-1.639.19-5.886,2.585-5.039,17.185-4.468,22.103.203,1.368,1.595,7.249,1.478,8.493-.197,2.87-2.576,5.901-5.241,7.073Z" fill="#ffcd3e"/>
      <path d="M319.298,358.331c-.666,0-1.319-.074-1.924-.228-1.625-.32-3.127-1.505-4.496-3.6l-.062-.102c-1.761-3.093-3.643-6.212-5.463-9.228-4.181-6.929-8.503-14.094-11.837-21.687-2.666-6.069,1.682-11.887,7.126-14.278,3.135-1.378,7.525-1.586,10.262,1.061.938.979,1.61,2.102,2.064,3.438,2.042-4.68,5.578-10.109,11.496-12.709,8.651-3.803,17.398.309,23.391,11,2.241,4.006,3.965,8.24,5.633,12.336,1.111,2.731,2.261,5.555,3.531,8.213.854,1.516,1.066,3.22.578,4.605-.862,3.281-4.062,5.302-6.611,6.423-5.338,2.343-10.39,1.482-12.873-2.194-2.54-3.688-3.705-8.054-4.832-12.274-.426-1.596-.866-3.246-1.372-4.813-.899-3.013-1.896-4.26-2.239-4.398l-.186-.029c-.098-.021-.154-.036-.408.076-3.524,1.548-4.334,11.276-3.312,20.086.048.316.237,1.229.437,2.193.797,3.849,1.137,5.73,1.046,6.707-.234,3.429-2.988,7.182-6.402,8.682h0c-1.078.474-2.333.721-3.545.721ZM316.184,352.411c.741,1.122,1.432,1.754,2.051,1.877.956.238,2.163.122,3.033-.26h0c2.106-.926,3.936-3.354,4.076-5.415.027-.745-.651-4.022-.978-5.598-.229-1.11-.411-1.986-.483-2.475-.568-4.895-1.819-20.915,5.616-24.181.948-.418,1.828-.522,2.759-.33,2.263.318,4.074,2.707,5.387,7.104.523,1.621.978,3.32,1.416,4.964,1.089,4.08,2.117,7.933,4.283,11.079,2.164,3.201,7.099,1.24,8.065.817,2.469-1.086,4.078-2.501,4.414-3.884l.078-.248c.101-.257.025-.844-.312-1.427l-.071-.134c-1.333-2.783-2.515-5.685-3.657-8.491-1.622-3.985-3.3-8.105-5.422-11.899-2.354-4.2-8.867-13.518-18.402-9.33-7.477,3.285-10.458,12.533-11.394,16.356l-1.744,7.133-2.036-7.055c-.476-1.647-.975-3.417-1.4-5.352-.266-1.115-.691-1.963-1.334-2.635-1.293-1.247-4.025-1.067-5.914-.237-3.708,1.629-6.762,5.38-5.118,9.122,3.233,7.362,7.489,14.417,11.605,21.239,1.822,3.02,3.705,6.141,5.481,9.258Z"/>
    </g>
    <g>
      <path d="M418.13,337.904c-3.421,2.305-7.76,2.595-10.97-.215-2.467-2.142-3.863-5.297-5.323-8.115-1.972-4.23-3.944-8.46-6.015-12.622-1.632-3.289-3.23-6.747-5.734-9.595.272,7.569-1.469,16.057-8.21,20.599-6.137,4.135-14.116,3.367-19.623-1.552-3.042-2.777-5.448-6.131-7.08-9.857-3.878-8.36-5.004-18.717-2.559-27.679,1.289-4.817,3.551-10.145,7.877-13.06,2.515-1.695,5.944-2.25,8.807-1.692,4.086-3.923,10.657-1.768,13.944,2.893,11.522,16.666,22.341,34.243,37.213,48.066,1.016,1.072,1.997,2.312,2.308,3.858.454,3.497-1.816,7.075-4.634,8.972ZM376.358,306.954c.67-7.473-2.227-15.029-5.658-21.641-.51-.973-1.615.21-2.621.889-5.831,4.806-3.594,14.856.507,21.161,1.052,1.779,3.49,4.963,5.507,4.482,1.714-.278,2.105-3.173,2.264-4.89Z" fill="#ffcd3e"/>
      <path d="M412.546,341.675c-2.427,0-4.763-.841-6.674-2.513-2.432-2.113-3.911-5.028-5.216-7.601-.186-.366-.37-.729-.556-1.087l-.06-.124c-1.927-4.131-3.918-8.403-5.971-12.526l-.431-.873c-.589-1.194-1.186-2.405-1.832-3.584-.876,7.254-3.919,12.898-8.835,16.212-6.746,4.543-15.801,3.84-22.021-1.717-3.272-2.987-5.813-6.525-7.568-10.53-4.157-8.961-5.156-19.809-2.655-28.979,1.803-6.735,4.721-11.505,8.671-14.167,2.576-1.737,6.058-2.521,9.311-2.142,1.882-1.453,4.237-2.114,6.717-1.877,3.564.343,7.172,2.532,9.416,5.714,1.936,2.8,3.841,5.608,5.749,8.422,9.325,13.752,18.968,27.972,31.197,39.338l.089.088c1.085,1.146,2.384,2.729,2.805,4.817l.022.135c.59,4.546-2.327,8.723-5.48,10.847-2.128,1.434-4.441,2.147-6.678,2.147ZM387.935,301.946l3.622,4.119c2.456,2.793,4.05,6.027,5.592,9.155l.426.862c2.073,4.165,4.076,8.46,6.013,12.614.178.345.367.718.558,1.094,1.199,2.362,2.438,4.806,4.299,6.421,2.79,2.441,6.268,1.639,8.593.069h0c2.133-1.437,4.107-4.302,3.794-7.026-.236-1.061-1.013-2.003-1.755-2.791-12.532-11.661-22.289-26.049-31.726-39.965-1.901-2.804-3.8-5.604-5.718-8.378-1.595-2.261-4.121-3.822-6.582-4.059-1.194-.116-2.921.047-4.398,1.464l-.732.703-.996-.193c-2.485-.485-5.365.063-7.339,1.394-3.145,2.12-5.526,6.138-7.081,11.943-2.268,8.316-1.353,18.164,2.445,26.351,1.551,3.538,3.773,6.633,6.624,9.234,4.944,4.417,11.869,4.976,17.212,1.375,6.478-4.364,7.57-12.689,7.347-18.905l-.197-5.481ZM373.666,313.851c-3.244,0-5.958-4.132-6.763-5.493-4.849-7.448-6.55-18.323-.067-23.666l.149-.112c.173-.116.349-.251.523-.385.845-.643,1.897-1.44,3.208-1.147.733.163,1.343.645,1.717,1.356,4.604,8.872,6.469,16.091,5.874,22.726v.006c-.154,1.656-.561,6.036-3.83,6.628-.273.061-.544.088-.812.088ZM369.261,287.764c-4.938,4.164-2.419,13.328.966,18.53,1.316,2.224,2.894,3.615,3.434,3.642.146-.174.533-.843.749-3.159.496-5.546-1.029-11.698-4.79-19.272-.12.09-.239.177-.358.26ZM373.78,309.912s-.008.002-.012.002l.012-.002Z"/>
    </g>
    <g>
      <path d="M432.446,231.375c-1.898-2.049-4.45-5.022-6.759-7.216-6.985-6.638-14.615-12.06-24.062-13.898-8.413-1.5-15.692,1.025-21.58,6.974-9.643,9.744-11.376,23.219-6.591,35.806,3.738,9.674,10.56,18.303,18.316,25.125,13.96,12.28,33.876,14.922,47.785.867,14.081-14.227,5.135-35.542-7.108-47.658ZM425.676,266.152c-7.765,7.847-20.592-.923-26.885-6.809-5.171-4.777-14.059-15.11-11.865-21.813.338-1.031.934-1.978,1.788-2.839,1.109-1.122,2.648-1.987,4.104-2.595,7.449-2.527,15.912-1.076,21.301,4.469,1.584,1.63,6.722,6.708,6.722,6.708,4.919,5.894,11.662,15.981,4.835,22.879Z" fill="#ffcd3e"/>
      <path d="M417.185,290.495c-9.064,0-18.487-3.628-26.709-10.861-6.112-5.376-14.344-14.231-18.849-25.889-5.296-13.932-2.668-28.092,7.025-37.887,6.429-6.497,14.486-9.102,23.314-7.524,8.625,1.678,16.346,6.119,25.066,14.406,1.721,1.634,3.539,3.651,5.144,5.432.595.659,1.158,1.285,1.675,1.843,6.897,6.837,11.972,15.565,13.924,23.954,2.409,10.348.047,19.491-6.832,26.44-6.661,6.73-15.044,10.086-23.759,10.086ZM396.975,211.79c-5.832,0-11.05,2.283-15.541,6.82-8.584,8.675-10.885,21.286-6.152,33.734,4.215,10.907,11.995,19.264,17.778,24.352,11.858,10.431,31.027,15.181,45.103.961,7.434-7.512,7.259-16.546,5.803-22.802-1.793-7.701-6.494-15.753-12.896-22.09l-.06-.062c-.535-.577-1.121-1.228-1.738-1.912-1.557-1.728-3.322-3.685-4.933-5.215-8.148-7.743-15.27-11.875-23.089-13.396-1.458-.261-2.885-.391-4.274-.391ZM417.918,271.172c-5.418,0-12.364-2.825-20.464-10.4-1.579-1.459-15.419-14.593-12.388-23.851.433-1.318,1.191-2.532,2.258-3.607,1.452-1.471,3.379-2.456,4.74-3.023l.124-.047c8.457-2.872,17.618-.924,23.333,4.958,1.552,1.597,6.644,6.629,6.694,6.68l.127.138c11.332,13.577,8.823,21.366,4.724,25.509h0c-2.171,2.194-5.268,3.645-9.148,3.645ZM393.51,233.927c-1.449.611-2.625,1.351-3.404,2.139-.645.651-1.076,1.329-1.32,2.073-1.714,5.236,5.839,14.69,11.334,19.767,1.653,1.547,16.31,14.809,24.166,6.87h0c4.292-4.337,2.647-11.125-4.887-20.178-.636-.629-5.184-5.126-6.684-6.67-4.653-4.789-12.184-6.356-19.205-4.001Z"/>
    </g>
  </g>
  <path d="M216.323,12.873c12.173-.648,52.123-9.783,50.092,9.535" fill="none" stroke="#000" stroke-miterlimit="10" stroke-width="1.957"/>
  <g>
    <path d="M235.054,12.84l.978,17.837c0,1.86-1.508,3.367-3.367,3.367h0c-1.86,0-3.367-1.508-3.367-3.367l.978-17.837" fill="#6a491d"/>
    <path d="M235.054,12.84c.616,3.831,1.039,7.678,1.394,11.53.196,1.925.322,3.854.48,5.781.172,1.027-.212,2.514-.991,3.345-2.758,3.269-8.102.826-7.538-3.345.443-5.79.956-11.567,1.877-17.311.195,3.875.197,7.733.129,11.587.068,2.257-.319,4.712-.066,6.923.628,2.258,4.025,2.261,4.652,0,.101-.358.116-.597.09-1.146-.192-5.791-.31-11.557-.028-17.364h0Z"/>
  </g>
  <g>
    <path d="M157.358,227.68c-2.491-1.077-1.331-2.425-6.016-2.42-2.266.003-3.423,2.964-3.789,5.242-.345,2.142-.245,4.28-.371,6.404-.074,1.239-1.193,6.017.789,6.119.631.032.781-.329,1.163-.688-.096.92.259,3.382,1.348,3.567,1.481.251,1.97-2.067,2.983-2.714,1.071-.684,2.114-.575,2.577.709,1.346,3.73-1.556,10.34,1.314,13.128,2.86,2.777,5.885.352,6.219-3.013.425-4.283-.697-9.06-.541-13.556.126-3.635,1.036-8.026.727-11.588-.076-.872-.139-1.751-.662-2.267-1.954-1.926-4.719-.868-5.401.395" fill="#7e441c"/>
    <path d="M157.358,227.68c-1.132-.275-1.927-1.408-2.973-1.764-1.019-.313-2.292-.254-3.316-.15-3.99,1.621-2.416,8.676-2.941,12.332-.125,1.144-.238,2.305-.105,3.226.033.219.09.415.141.51.059.117.057.019-.06-.029-.125-.032.033-.049-.186.007-.254.176,2.58-2.743,2.679-2.877.001,1.461-.577,4.399.298,5.714.035.049.058.048.004.008-.041-.041-.25-.099-.2-.087-.044-.015-.126.05-.007-.051.513-.569.876-1.501,1.526-2.117,1.092-1.097,3.15-1.518,4.366-.273.836.89.973,1.737,1.164,2.76.398,2.993-.353,5.781-.246,8.573.079,1.12.229,2.05,1.088,2.759.836.686,1.508.771,2.216.345.732-.448,1.314-1.505,1.454-2.598.304-2.572.051-5.376-.106-8.204-.22-2.832-.132-5.838.341-8.635.404-2.81.963-5.558.912-8.335-.02-.696-.019-1.401-.348-1.923-.4-.492-.998-.912-1.648-1.086-1.288-.363-2.902.036-3.712,1.212.737-1.229,2.36-1.772,3.777-1.471.73.151,1.363.546,1.912,1.089.533.636.592,1.434.712,2.119.623,4.269-.287,8.484-.106,12.7.164,4.329,1.246,8.311.871,12.837-.542,5.854-7.192,7.528-9.752,1.858-1.511-3.827.715-8.39-.525-11.974-.006.011.121.051.092.035-.032.003-.182.025-.361.131-.651.507-.966,1.51-1.776,2.204-.673.69-2.15,1.06-3.113.365-1.469-1.193-1.6-2.904-1.56-4.687,0,0,2.136,1.057,2.136,1.057-.267.247-.47.545-.949.788-1.167.64-2.789-.134-3.122-1.252-.78-2.312.145-4.455.252-6.647.241-4.15.462-12.507,6.611-11.21.6.096,1.212.216,1.789.49,1.147.558,1.599,1.748,2.772,2.249h0Z" fill="#020202"/>
  </g>
  <g>
    <path d="M293.762,195.125c-2.491-1.077-1.331-2.425-6.016-2.42-2.266.003-3.423,2.964-3.789,5.242-.345,2.142-.245,4.28-.371,6.404-.074,1.239-1.193,6.017.789,6.119.631.032.781-.329,1.163-.688-.096.92.259,3.382,1.348,3.567,1.481.251,1.97-2.067,2.983-2.714,1.071-.684,2.114-.575,2.577.709,1.346,3.73-1.556,10.34,1.314,13.128,2.86,2.777,5.885.352,6.219-3.013.425-4.283-.697-9.06-.541-13.556.126-3.635,1.036-8.026.727-11.588-.076-.872-.139-1.751-.662-2.267-1.954-1.926-4.719-.868-5.401.395" fill="#7e441c"/>
    <path d="M293.762,195.125c-1.132-.275-1.927-1.408-2.973-1.764-1.019-.313-2.292-.254-3.316-.15-3.99,1.621-2.416,8.676-2.941,12.332-.125,1.144-.238,2.305-.105,3.226.033.219.09.415.141.51.059.117.057.019-.06-.029-.125-.032.033-.049-.186.007-.254.176,2.58-2.743,2.679-2.877.001,1.461-.577,4.399.298,5.714.035.049.058.048.004.008-.041-.041-.25-.099-.2-.087-.044-.015-.126.05-.007-.051.513-.569.876-1.501,1.526-2.117,1.092-1.097,3.15-1.518,4.366-.273.836.89.973,1.737,1.164,2.76.398,2.993-.353,5.781-.246,8.573.079,1.12.229,2.05,1.088,2.759.836.686,1.508.771,2.216.345.732-.448,1.314-1.505,1.454-2.598.304-2.572.051-5.376-.106-8.204-.22-2.832-.132-5.838.341-8.635.404-2.81.963-5.558.912-8.335-.02-.696-.019-1.401-.348-1.923-.4-.492-.999-.912-1.648-1.086-1.288-.363-2.902.036-3.712,1.212.737-1.229,2.36-1.772,3.777-1.471.73.151,1.363.546,1.912,1.089.533.636.592,1.434.712,2.119.623,4.269-.287,8.484-.106,12.701.164,4.329,1.246,8.311.871,12.837-.542,5.854-7.192,7.528-9.752,1.858-1.511-3.827.715-8.39-.525-11.974-.006.011.121.051.092.035-.032.003-.182.025-.361.132-.651.507-.966,1.51-1.776,2.204-.673.69-2.15,1.06-3.113.365-1.469-1.193-1.6-2.904-1.56-4.687,0,0,2.136,1.057,2.136,1.057-.267.247-.47.545-.949.788-1.167.64-2.789-.134-3.122-1.252-.779-2.312.145-4.455.252-6.647.241-4.15.462-12.507,6.611-11.21.601.096,1.212.216,1.789.49,1.147.558,1.599,1.748,2.772,2.249h0Z" fill="#020202"/>
  </g>
  <g>
    <path d="M213.208,194.108c-.683-1.019-3.447-1.874-5.401-.319-.523.416-.587,1.126-.662,1.83-.309,2.876-2.175,6.27-2.049,9.205.156,3.63,4.558-1.229,4.983,2.228.334,2.717-1.928,4.417,2.055,4.285,2.927-.097,1.631-1.915,2.731-3.584.641-.972,1.507-1.125,2.577-.572,1.013.523,1.503,2.394,2.983,2.191,1.089-.149,1.444-2.137,1.348-2.88.382.29.531.582,1.163.556,1.983-.082.863-3.939.789-4.94-.126-1.715-.026-3.441-.371-5.171-.366-1.839-1.523-4.23-3.789-4.232-4.685-.004-3.525,1.084-6.016,1.954" fill="#7e441c"/>
    <path d="M213.208,194.108c-1.295-1.28-3.665-1.21-4.996-.104-.634.405-.462,1.317-.601,2.358-.264,2.896-2.028,6.23-1.404,8.908-.018-.047-.122-.081-.05-.075.821-.102,1.725-.603,2.707-.606.85-.108,1.972.665,2.195,1.495.492,1.304.216,2.888-.025,4.099-.026.151.023.224-.033.036-.075-.204-.282-.305-.214-.27.326.093,1.757.149,2.125-.035.179-.713.387-2.34,1.145-3.104.877-1.273,2.848-1.446,4.129-.529,1.017.649,1.332,1.821,2.081,2.056.244-.087.613-1.198.568-1.72l-.2-2.327,1.715,1.451c.355.292.387.381.472.4.301.045.317-.059.42-.391.174-.768.049-1.808-.078-2.81-.248-2.151.195-4.116-.171-6.197-.373-1.855-1.566-4-3.729-3.865-1.017-.002-2.066-.018-3.02.315-.929.388-1.673,1.226-2.692,1.468,1.033-.309,1.679-1.166,2.63-1.622.986-.403,2.049-.438,3.079-.494,5.022-.045,4.61,6.803,5.242,10.162.236,1.283.798,2.996-.022,4.398-.509.796-1.613,1.056-2.474.693-.498-.241-.678-.486-.805-.55l1.514-.876c.292,2.089-1.086,4.965-3.596,3.856-1.07-.463-1.531-1.529-2.179-1.997-.132-.084-.509-.211-.654-.18-.353.083-.57.655-.641,1.072-.078.354-.076.794-.278,1.517-.153.754-1.083,1.637-1.828,1.787-1.48.308-2.155.372-3.659-.031-.374-.124-1.011-.52-1.265-1.175-.509-1.546.373-2.55.283-3.923.007-.316-.137-.528-.02-.423.181.051-.083-.047-.474.052-.391.078-.847.219-1.417.319-4.925.66-2.214-6.178-1.354-8.436.802-1.791.849-3.488,1.458-4.857,1.451-1.815,4.779-1.646,6.118.155h0Z" fill="#020202"/>
  </g>
  <g>
    <path d="M272.82,227.252c-2.491-.87-1.331-1.958-6.016-1.954-2.266.002-3.423,2.393-3.789,4.232-.345,1.73-.245,3.455-.371,5.171-.074,1.001-1.193,4.858.789,4.94.631.026.781-.265,1.163-.556-.096.743.259,2.731,1.348,2.88,1.481.203,1.97-1.669,2.983-2.191,1.071-.552,1.936-.4,2.577.572,1.1,1.668-.196,3.487,2.731,3.584,3.983.132,1.721-1.568,2.055-4.285.425-3.458,4.826,1.402,4.983-2.228.126-2.935-1.74-6.329-2.049-9.205-.076-.704-.139-1.414-.662-1.83-1.954-1.555-4.719-.701-5.401.319" fill="#7e441c"/>
    <path d="M272.82,227.252c-1.013-.213-1.798-1.045-2.718-1.403-1.72-.366-4.223-.729-5.4.914-1.618,2.022-1.168,4.725-1.084,7.154.126,1.463-.551,3.422-.073,4.614.015-.001-.082-.088-.083-.08-.005,0,.041,0,.068-.04.036-.096-.225.064-.078-.069.094-.175,2.834-1.903,3.058-2.065,0,0-.62,2.976-.62,2.976-.029.137.009.601.091.902.048.343.356.679.193.611-.137-.027.037.025.092-.017.655-.388.973-1.285,1.916-1.881,2.177-1.399,4.445.019,4.846,2.33.144.667.109,1.13.276,1.473.01.023.08.07.208.114.496.17,1.747.185,2.183.058.106-.044.006-.002-.025.094-.016.085.019-.033-.005-.206-.393-1.714-.825-5.231,1.841-5.229.981.011,1.864.553,2.735.599.316.01.316-.43.356-.929.096-2.679-1.265-5.509-1.621-8.257-.17-.976.088-1.992-.68-2.516-.719-.569-1.67-.811-2.601-.772-.917.055-1.914.331-2.534,1.071,1.239-1.503,3.745-1.644,5.331-.574.958.496.963,1.783,1.17,2.67.65,2.86,2.153,5.285,2.289,8.389.001.63-.006,1.237-.472,1.826-1.076,1.324-3.05-.076-4.167.196-.423.9.062,2.194.241,3.277.466,2.62-2.859,2.716-4.649,2.297-.701-.132-1.544-.906-1.707-1.61-.324-.983-.295-3.075-1.603-2.433-.338.17-.424.353-.843.88-2.474,3.325-5.74.96-5.448-2.699,0,0,2.083,1.205,2.083,1.205-.568.622-1.553.899-2.401.654-2.482-.566-1.86-3.94-1.447-5.536.606-3.323.523-10.404,5.575-10.227,1.035.071,2.105.116,3.104.551.961.484,1.566,1.348,2.604,1.686h0Z" fill="#020202"/>
  </g>
</svg>